<?xml version="1.0" encoding="UTF-8"?><svg id="Logo" xmlns="http://www.w3.org/2000/svg" viewBox="0 0 194.96 160.86"><g id="Arnold"><path d="m184.09,58.95c.76-8.77,2.13-18.1,4.11-27.98.06-.22.1-.43.11-.65.85-4.35,1.79-8.7,2.8-13.04s2.2-8.63,3.52-12.84c.59-2.03.35-3.33-.71-3.9-1.05-.56-2.36-.69-3.93-.38-1.56.31-2.79.79-3.68,1.45-1.91,1.43-3.74,2.92-5.49,4.46-6.91,6.5-13.11,13.83-18.58,21.97-5.48,8.14-10.45,16.68-14.93,25.6-4.48,8.92-8.69,17.79-12.62,26.6-1.15,2.5-2.29,4.96-3.43,7.4-.24.48-.48.98-.72,1.51-.6,1.16-1.14,2.36-1.63,3.58-.74,1.81-2.05,2.7-3.94,2.66-3.65.13-7.38.36-11.22.7-7.61.13-13.89-.13-18.41-.41,0,0-18.49-1.16-18.69,1.03-.02.19.24.78.02,1.58-.09.33-.2.46-.2.52.01.49,8.31.88,37.67.79,4.2.4,6.84.19,8.53-.12.54-.1,1.69-.25,2.3.27.34.29.26,1.01-.22,2.18h-.01c-2.05,4.35-4.17,8.64-6.37,12.88-2.2,4.23-4.65,8.34-7.33,12.34-4.68,7.24-10.23,13.73-16.62,19.5.11,1.42-.33,2.87-1.4,3.88-.12.12-.25.27-.35.38.25.2.32.3.3.31.02.02.04.04.05.06.17.06.37.18.55.3.05.02.11.04.16.06.06.02.11.03.15.04.16,0,.31,0,.46,0,.03,0,.07-.02.11-.03.02,0,.03,0,.05,0,.16-.19.66-.41.86-.55.83-.59,1.82-.79,2.8-.7,1.21-.97,2.4-1.98,3.55-3.05,6.92-6.72,12.88-14.19,17.87-22.42,4.45-7.22,8.33-14.76,11.62-22.62,1.11-2.87,3.09-4.22,5.95-4.03l.49.02c8.62-.3,17.24-.84,25.83-1.63,3.09-.24,6.23-.41,9.37-.53,1.36-.1,2.22.02,2.59.36.36.34.54,1.17.54,2.47.2,8.3.82,16.6,1.84,24.88.27,2.46.61,4.87,1.04,7.29.24,1.74.49,3.49.73,5.24.21,1.31.75,2.16,1.63,2.56.87.39,1.73.45,2.56.16.82-.28,1.31-.81,1.45-1.55.02-.43,0-.87-.1-1.31-.04-.16-.09-.35-.13-.58-1.62-11.68-2.51-23.39-2.66-35.16-.01-.81-.04-1.52-.06-2.12-.06-1.08-.02-1.85.11-2.31s.52-.72,1.18-.8c.65-.08,1.63-.08,2.92-.02,1.03.05,2.06.07,3.08.06,1.03,0,1.89-.1,2.58-.29.69-.19,1.02-.55.98-1.1.01-.22-.03-.45-.13-.7-.1-.24-.22-.43-.38-.55h0c-.52-.35-1.08-.57-1.67-.66-1.35-.11-2.7-.18-4.06-.19-1.14,0-2.3-.06-3.49-.16-.7-.08-1.06-.51-1.08-1.27-.06-1.08-.06-2.17,0-3.25.42-10.01,1-19.39,1.77-28.17Zm-5.67-5.67c-1.12,10.73-1.95,22.21-2.46,34.43l-.11,2.35c-.04.76-.21,1.29-.53,1.6-.31.31-.79.48-1.45.5-1.03.06-2.04.12-3.01.18-.54.02-1.12.09-1.71.16-2.88.19-5.76.38-8.64.57-6.63.5-13.29.92-19.97,1.26-.43.03-.81.04-1.14.03-2.24.28-3.47.15-3.72-.37s.26-2.09,1.52-4.68c1.44-3.03,2.91-6.15,4.42-9.38,3.2-7.06,6.61-14.3,10.2-21.72,3.6-7.42,7.45-14.57,11.57-21.45,4.12-6.88,8.49-13.03,13.14-18.45,2.06-2.35,4.17-4.6,6.33-6.78.57-.62,1.14-1.25,1.71-1.87.97-1.04,1.57-1.44,1.81-1.22.23.23.24.88.03,1.95-.17,1.24-.43,2.63-.81,4.19-.37,1.55-.66,2.76-.86,3.61v.03c-.07.22-.11.38-.11.49-3.02,12.32-5.08,23.86-6.22,34.59Z"/></g><path d="m78.13,92.46c-.72.67-3.45,3.33-2.72,4.92.6,1.32,3.3,1.27,4.6,1.24,9.16-.25,30.06-2.19,33.75-2.54-29.32.07-35.29-2.43-35.58-4.56-.03-.2,0-.42.07-.65-.11-.36-.1-.9.04-1.62.76-4.42,1.34-9.66,1.76-15.71.41-6.05.53-12.35.33-18.88-.19-6.53-.82-12.73-1.87-18.61-1.05-5.88-2.66-10.87-4.83-14.98-3.63-6.86-9.26-10.91-16.92-12.19-4.58-.71-9.11-.52-13.58.57-6.8,1.63-12.93,4.37-18.38,8.25-5.45,3.88-9.83,8.45-13.15,13.7-3.32,5.25-5.21,10.79-5.68,16.6-.46,5.81.84,11.46,3.9,16.95,3.06,5.48,8.27,10.43,15.64,14.84.8.45,1.63.8,2.5,1.03h.16c.59.18,1.18.27,1.78.29.65.02,1.27-.08,1.88-.28.38-.1.73-.28,1.02-.55.31-.26.43-.61.4-1.05,0-.32-.11-.61-.35-.86-.23-.25-.52-.4-.84-.47-2.69-.76-5.04-1.99-7.05-3.66-2.02-1.67-3.9-3.55-5.63-5.66-4.11-4.76-6.52-9.59-7.25-14.51-.72-4.92-.16-9.67,1.68-14.25,1.84-4.59,4.58-8.78,8.21-12.6,3.63-3.81,7.79-7.01,12.45-9.58s9.44-4.29,14.33-5.14c7.01-1.02,12.63,1.36,16.88,7.15,2.78,3.91,4.78,9.01,6.01,15.3,1.23,6.28,1.89,13,2,20.15.1,7.15-.11,14-.65,20.54-.54,6.54-1.18,12.05-1.94,16.53-.2,1.68-1.13,2.76-2.76,3.26-3.39,1.22-6.77,2.52-10.17,3.9-4.15,1.63-9.14,3.87-14.93,6.71-5.81,2.84-11.68,6.14-17.61,9.89-5.93,3.76-11.18,7.81-15.72,12.18-4.55,4.36-7.6,8.85-9.17,13.46-1.63,5.16-.58,9.65,3.17,13.48,2.91,2.78,6.36,4.51,10.35,5.2,7.17,1.2,13.95.55,20.34-1.95,6.39-2.5,12.2-6.23,17.44-11.2,5.23-4.97,9.68-10.54,13.35-16.74,3.67-6.19,6.36-12.41,8.08-18.65,1.11-4.16,2.13-8.32,3.08-12.48-.22-2.27.43-4.65,1.57-6.8Zm-9.13,9.71h0c-.78,3.4-2.06,7.32-3.81,11.78-1.76,4.45-3.97,9.06-6.62,13.82-2.65,4.76-5.67,9.25-9.05,13.47-3.37,4.22-7.04,7.77-10.97,10.66-3.94,2.89-8.09,4.74-12.44,5.55-4.35.82-8.8.17-13.35-1.94-3.05-1.48-5.05-3.5-5.99-6.07-.94-2.57-.72-5.38.65-8.44,2.11-4.55,5.54-8.91,10.3-13.08,4.75-4.17,10.13-8.02,16.15-11.56,6.02-3.54,11.94-6.66,17.8-9.37,5.86-2.7,10.94-4.87,15.26-6.5,1.7-.66,2.38-.1,2.07,1.67Z"/></svg>